# xmcd
# 
# Track frame offsets:
#     182
#     14605
#     25685
#     42987
#     60002
#     85985
#     97827
#     114322
#     135427
#     162665
#     174905
#     184340
#     198675
#     210277
#     226490
# 
# Disc length: 3498
# 
# Revision: 9
# Processed by: cddbd v1.5.2PL0 Copyright (c) Steve Scherf et al.
# Submitted via: fre:ac v1.0.31
# 
DISCID=ba0da80f
DTITLE=Various Artist - L'ame du gospel - cd1
DYEAR=1994
DGENRE=Gospel
TTITLE0=The Edwin Hawkins Singers - Oh happy day
TTITLE1=Marion Williams - He's got the whole world in his hands
TTITLE2=Alex Bradford - How many times
TTITLE3=Mahalia Jackson - Nobody knows the trouble I've seen
TTITLE4=The Abyssinian Baptist Gospel Choir - Said I wasn't gonna tell nobody
TTITLE5=The Golden Gate Quartet - Shadrack
TTITLE6=Louis Armstrong - Go down moses
TTITLE7=Marion Williams - Didn't it rain
TTITLE8=Bessie Griffin - Old ship of Zion
TTITLE9=The Staple Singers - Pray on
TTITLE10=Mahalia Jackson - Joshua Fit the battle of Jericho
TTITLE11=The Golden Gate Quartet - Hush !
TTITLE12=Dorothy Love Coates and The Original Gospel Harmonettes - That's enough
TTITLE13=The Abyssinian Baptist Gospel Choir - I want to ride that glory train
TTITLE14=Liz Mc Comb - I've been bucked
EXTD=YEAR: 1994
EXTT0=
EXTT1=
EXTT2=
EXTT3=
EXTT4=
EXTT5=
EXTT6=
EXTT7=
EXTT8=
EXTT9=
EXTT10=
EXTT11=
EXTT12=
EXTT13=
EXTT14=
PLAYORDER=
